<svg width="97" height="89" viewBox="0 0 97 89" fill="none" xmlns="http://www.w3.org/2000/svg">
<circle cx="52.8206" cy="40.8206" r="38.626" stroke="#111111" stroke-width="4.38932"/>
<g filter="url(#filter0_d_241_952)">
<path d="M52.7021 43.0149C64.8999 43.0149 74.2099 51.4671 74.21 61.2307C74.21 70.9945 64.8999 79.4466 52.7021 79.4466C40.5044 79.4465 31.1943 70.9944 31.1943 61.2307C31.1944 51.4671 40.5045 43.015 52.7021 43.0149Z" stroke="#111111" stroke-width="4.38932" shape-rendering="crispEdges"/>
</g>
<g filter="url(#filter1_d_241_952)">
<path d="M53.1182 15.8012C61.4144 15.8012 68.042 22.3402 68.042 30.2865C68.0418 38.2327 61.4143 44.7709 53.1182 44.7709C44.8221 44.7708 38.1945 38.2327 38.1943 30.2865C38.1943 22.3403 44.822 15.8013 53.1182 15.8012Z" stroke="#111111" stroke-width="4.38932" shape-rendering="crispEdges"/>
</g>
<defs>
<filter id="filter0_d_241_952" x="27.2443" y="40.8206" width="50.9157" height="44.3321" filterUnits="userSpaceOnUse" color-interpolation-filters="sRGB">
<feFlood flood-opacity="0" result="BackgroundImageFix"/>
<feColorMatrix in="SourceAlpha" type="matrix" values="0 0 0 0 0 0 0 0 0 0 0 0 0 0 0 0 0 0 127 0" result="hardAlpha"/>
<feOffset dy="1.75573"/>
<feGaussianBlur stdDeviation="0.877863"/>
<feComposite in2="hardAlpha" operator="out"/>
<feColorMatrix type="matrix" values="0 0 0 0 0 0 0 0 0 0 0 0 0 0 0 0 0 0 0.25 0"/>
<feBlend mode="normal" in2="BackgroundImageFix" result="effect1_dropShadow_241_952"/>
<feBlend mode="normal" in="SourceGraphic" in2="effect1_dropShadow_241_952" result="shape"/>
</filter>
<filter id="filter1_d_241_952" x="34.2443" y="13.6068" width="37.7478" height="36.8702" filterUnits="userSpaceOnUse" color-interpolation-filters="sRGB">
<feFlood flood-opacity="0" result="BackgroundImageFix"/>
<feColorMatrix in="SourceAlpha" type="matrix" values="0 0 0 0 0 0 0 0 0 0 0 0 0 0 0 0 0 0 127 0" result="hardAlpha"/>
<feOffset dy="1.75573"/>
<feGaussianBlur stdDeviation="0.877863"/>
<feComposite in2="hardAlpha" operator="out"/>
<feColorMatrix type="matrix" values="0 0 0 0 0 0 0 0 0 0 0 0 0 0 0 0 0 0 0.25 0"/>
<feBlend mode="normal" in2="BackgroundImageFix" result="effect1_dropShadow_241_952"/>
<feBlend mode="normal" in="SourceGraphic" in2="effect1_dropShadow_241_952" result="shape"/>
</filter>
</defs>
</svg>
