<svg width="107" height="125" viewBox="0 0 107 125" fill="none" xmlns="http://www.w3.org/2000/svg">
<g clip-path="url(#clip0_136_3173)">
<circle cx="52.8206" cy="40.8206" r="38.626" stroke="#111111" stroke-width="4.38932"/>
<g filter="url(#filter0_d_136_3173)">
<path d="M52.7021 43.015C64.8999 43.015 74.2099 51.4671 74.21 61.2308C74.21 70.9945 64.8999 79.4466 52.7021 79.4466C40.5044 79.4465 31.1943 70.9945 31.1943 61.2308C31.1944 51.4671 40.5045 43.015 52.7021 43.015Z" stroke="#111111" stroke-width="4.38932" shape-rendering="crispEdges"/>
</g>
<g filter="url(#filter1_d_136_3173)">
<path d="M53.1182 15.8012C61.4144 15.8012 68.042 22.3403 68.042 30.2866C68.0418 38.2327 61.4143 44.7709 53.1182 44.7709C44.8221 44.7709 38.1945 38.2327 38.1943 30.2866C38.1943 22.3403 44.822 15.8013 53.1182 15.8012Z" stroke="#111111" stroke-width="4.38932" shape-rendering="crispEdges"/>
</g>
<path d="M4.29107 109H-1.01601L5.87721 88.5697H12.4512L19.3444 109H14.0373L9.23903 93.7172H9.07941L4.29107 109ZM3.58279 100.96H14.6758V104.71H3.58279V100.96ZM39.1288 95.9717H34.1409C34.0744 95.4596 33.9381 94.9974 33.7319 94.5851C33.5257 94.1728 33.2531 93.8203 32.9139 93.5277C32.5747 93.235 32.1724 93.0123 31.7068 92.8593C31.248 92.6997 30.7392 92.6199 30.1805 92.6199C29.1896 92.6199 28.335 92.8626 27.6168 93.3481C26.9052 93.8336 26.3565 94.5352 25.9708 95.453C25.5917 96.3707 25.4022 97.4814 25.4022 98.7849C25.4022 100.142 25.595 101.279 25.9808 102.197C26.3732 103.108 26.9218 103.796 27.6268 104.262C28.3384 104.72 29.1797 104.95 30.1506 104.95C30.696 104.95 31.1914 104.88 31.637 104.74C32.0892 104.601 32.4849 104.398 32.8241 104.132C33.1699 103.859 33.4526 103.53 33.6721 103.144C33.8982 102.752 34.0545 102.31 34.1409 101.817L39.1288 101.847C39.0423 102.752 38.7796 103.643 38.3407 104.521C37.9084 105.399 37.3132 106.2 36.555 106.925C35.7969 107.643 34.8725 108.215 33.7818 108.641C32.6978 109.067 31.4541 109.279 30.0509 109.279C28.202 109.279 26.5461 108.874 25.083 108.062C23.6265 107.244 22.476 106.054 21.6314 104.491C20.7867 102.928 20.3644 101.026 20.3644 98.7849C20.3644 96.537 20.7934 94.6316 21.6513 93.0688C22.5092 91.5059 23.6697 90.3188 25.1328 89.5074C26.5959 88.6961 28.2353 88.2904 30.0509 88.2904C31.2879 88.2904 32.4317 88.4633 33.4825 88.8091C34.5333 89.1483 35.4577 89.6471 36.2558 90.3055C37.0538 90.9573 37.7022 91.7586 38.201 92.7097C38.6998 93.6607 39.0091 94.748 39.1288 95.9717ZM60.4992 95.9717H55.5114C55.4449 95.4596 55.3085 94.9974 55.1024 94.5851C54.8962 94.1728 54.6235 93.8203 54.2844 93.5277C53.9452 93.235 53.5428 93.0123 53.0773 92.8593C52.6184 92.6997 52.1097 92.6199 51.551 92.6199C50.5601 92.6199 49.7055 92.8626 48.9873 93.3481C48.2757 93.8336 47.727 94.5352 47.3413 95.453C46.9622 96.3707 46.7727 97.4814 46.7727 98.7849C46.7727 100.142 46.9655 101.279 47.3512 102.197C47.7436 103.108 48.2923 103.796 48.9972 104.262C49.7088 104.72 50.5501 104.95 51.5211 104.95C52.0664 104.95 52.5619 104.88 53.0075 104.74C53.4597 104.601 53.8554 104.398 54.1946 104.132C54.5404 103.859 54.8231 103.53 55.0425 103.144C55.2686 102.752 55.4249 102.31 55.5114 101.817L60.4992 101.847C60.4128 102.752 60.1501 103.643 59.7112 104.521C59.2789 105.399 58.6837 106.2 57.9255 106.925C57.1674 107.643 56.2429 108.215 55.1523 108.641C54.0682 109.067 52.8246 109.279 51.4213 109.279C49.5725 109.279 47.9165 108.874 46.4534 108.062C44.997 107.244 43.8464 106.054 43.0018 104.491C42.1572 102.928 41.7349 101.026 41.7349 98.7849C41.7349 96.537 42.1639 94.6316 43.0218 93.0688C43.8797 91.5059 45.0402 90.3188 46.5033 89.5074C47.9664 88.6961 49.6058 88.2904 51.4213 88.2904C52.6583 88.2904 53.8022 88.4633 54.853 88.8091C55.9038 89.1483 56.8282 89.6471 57.6262 90.3055C58.4243 90.9573 59.0727 91.7586 59.5715 92.7097C60.0703 93.6607 60.3795 94.748 60.4992 95.9717ZM63.3249 109V88.5697H77.5702V92.58H68.2628V96.7698H76.842V100.79H68.2628V104.99H77.5702V109H63.3249ZM88.2143 109H80.6627V88.5697H88.2043C90.2859 88.5697 92.0782 88.9787 93.5812 89.7967C95.0909 90.6081 96.2547 91.7786 97.0727 93.3082C97.8907 94.8312 98.2997 96.6534 98.2997 98.7749C98.2997 100.903 97.8907 102.732 97.0727 104.262C96.2614 105.791 95.1008 106.965 93.5912 107.783C92.0815 108.594 90.2892 109 88.2143 109ZM85.6006 104.79H88.0247C89.1686 104.79 90.1363 104.597 90.9277 104.212C91.7257 103.819 92.3276 103.184 92.7333 102.306C93.1456 101.422 93.3518 100.245 93.3518 98.7749C93.3518 97.3051 93.1456 96.1347 92.7333 95.2634C92.3209 94.3856 91.7124 93.7538 90.9077 93.3681C90.1097 92.9757 89.1254 92.7795 87.9549 92.7795H85.6006V104.79ZM106.121 88.5697V109H101.183V88.5697H106.121Z" fill="#111111"/>
</g>
<defs>
<filter id="filter0_d_136_3173" x="27.2443" y="40.8206" width="50.9157" height="44.3321" filterUnits="userSpaceOnUse" color-interpolation-filters="sRGB">
<feFlood flood-opacity="0" result="BackgroundImageFix"/>
<feColorMatrix in="SourceAlpha" type="matrix" values="0 0 0 0 0 0 0 0 0 0 0 0 0 0 0 0 0 0 127 0" result="hardAlpha"/>
<feOffset dy="1.75573"/>
<feGaussianBlur stdDeviation="0.877863"/>
<feComposite in2="hardAlpha" operator="out"/>
<feColorMatrix type="matrix" values="0 0 0 0 0 0 0 0 0 0 0 0 0 0 0 0 0 0 0.25 0"/>
<feBlend mode="normal" in2="BackgroundImageFix" result="effect1_dropShadow_136_3173"/>
<feBlend mode="normal" in="SourceGraphic" in2="effect1_dropShadow_136_3173" result="shape"/>
</filter>
<filter id="filter1_d_136_3173" x="34.2443" y="13.6069" width="37.7478" height="36.8702" filterUnits="userSpaceOnUse" color-interpolation-filters="sRGB">
<feFlood flood-opacity="0" result="BackgroundImageFix"/>
<feColorMatrix in="SourceAlpha" type="matrix" values="0 0 0 0 0 0 0 0 0 0 0 0 0 0 0 0 0 0 127 0" result="hardAlpha"/>
<feOffset dy="1.75573"/>
<feGaussianBlur stdDeviation="0.877863"/>
<feComposite in2="hardAlpha" operator="out"/>
<feColorMatrix type="matrix" values="0 0 0 0 0 0 0 0 0 0 0 0 0 0 0 0 0 0 0.25 0"/>
<feBlend mode="normal" in2="BackgroundImageFix" result="effect1_dropShadow_136_3173"/>
<feBlend mode="normal" in="SourceGraphic" in2="effect1_dropShadow_136_3173" result="shape"/>
</filter>
<clipPath id="clip0_136_3173">
<rect width="107" height="125" fill="white"/>
</clipPath>
</defs>
</svg>
